<?xml version="1.0" encoding="utf-8"?>
<!-- Generator: Adobe Illustrator 27.7.0, SVG Export Plug-In . SVG Version: 6.00 Build 0)  -->
<svg version="1.1"
	 id="svg2" xmlns:svg="http://www.w3.org/2000/svg" xmlns:inkscape="http://www.inkscape.org/namespaces/inkscape" xmlns:sodipodi="http://sodipodi.sourceforge.net/DTD/sodipodi-0.dtd"
	 xmlns="http://www.w3.org/2000/svg" xmlns:xlink="http://www.w3.org/1999/xlink" x="0px" y="0px" viewBox="0 0 258.7 258.7"
	 style="enable-background:new 0 0 258.7 258.7;" xml:space="preserve">
<style type="text/css">
	.st0{fill-rule:evenodd;clip-rule:evenodd;fill:#231F20;}
</style>
<sodipodi:namedview  bordercolor="#000000" borderopacity="0.25" id="namedview4" inkscape:deskcolor="#d1d1d1" inkscape:pagecheckerboard="0" inkscape:pageopacity="0.0" inkscape:showpageshadow="2" pagecolor="#ffffff">
	</sodipodi:namedview>
<g id="g10" transform="scale(0.1)">
	<path id="path14" class="st0" d="M220.2,759.9H1422v534.1l183.9,534.1H988.1l-100.2-290.9v290.9H220.2v-467.4h133.5v333.8h400.6
		v-400.6h183.3l137.9,400.6h350.8l-137.9-400.6V893.5H353.8v333.8H220.2V759.9z M887.9,359.3v267.1H754.4V225.8h467.4v133.5H887.9z
		 M1355.3,2228.8h333.8v-534.1h534.1v-333.8h133.5v467.4h-534.1v534.1h-467.4L1355.3,2228.8z M1355.3,225.8h467.4v534.1h534.1v467.4
		h-133.5V893.5h-534.1V359.3h-333.8V225.8z M1221.7,2228.8v133.5H754.4v-400.6h133.5v267.1H1221.7"/>
</g>
</svg>
