<svg xmlns="http://www.w3.org/2000/svg" xmlns:xlink="http://www.w3.org/1999/xlink" version="1.1" width="50" height="50" viewBox="0.91 0 50 50" fill="#684D95" xml:space="preserve">
<rect x="0" y="0" width="100%" height="100%" fill="transparent"></rect>
<g transform="matrix(1 0 0 1 25 25)" id="b2c38ce7-c52c-471a-8375-3dae03db4e40"  >
<rect style="stroke: none; stroke-width: 1; stroke-dasharray: none; stroke-linecap: butt; stroke-dashoffset: 0; stroke-linejoin: miter; stroke-miterlimit: 4; opacity: 1; visibility: hidden;" vector-effect="non-scaling-stroke"  x="-25" y="-25" rx="0" ry="0" width="50" height="50" />
</g>
<g transform="matrix(Infinity NaN NaN Infinity 0 0)" id="d5336b3e-c615-4700-ad70-550be86a86ba"  >
</g>
<g transform="matrix(0.09 0 0 0.09 26.44 25.11)" id="54afee9e-249c-43cd-b4e6-e15583579296"  >
<path style="stroke: rgb(0,0,0); stroke-width: 0; stroke-dasharray: none; stroke-linecap: butt; stroke-dashoffset: 0; stroke-linejoin: miter; stroke-miterlimit: 4; opacity: 1;" vector-effect="non-scaling-stroke"  transform=" translate(-227.49, -256)" d="M 335.2219849 244.6636963 L 349.4074707 244.6636963 L 347.5634155 262 L 333.42724610000005 262 L 335.2219849 244.6636963 z M 454.9803467 147.4076538 L 454.9803467 364.5924072 C 454.4987183 378.30822750000004 447.5273438 390.56958010000005 435.2793579 398.7158203 L 247.1911011 507.3074341 C 236.35632329999999 513.564148 218.62396239999998 513.564148 207.7892456 507.3074341 L 19.7009277 398.7158203 C 8.2855835 391.2316895 0.8429565 379.1637573 0 364.5924072 L 0 147.4076538 C 0 134.89569089999998 8.864624 119.53936769999999 19.7009277 113.2841186 L 207.7892456 4.6925049 C 218.62396239999998 -1.5641479 236.3563232 -1.5641479 247.1911011 4.6925049 L 435.27935790000004 113.28411870000001 C 446.6565552 120.9649048 454.5403442 134.2429199 454.9803467 147.4076538 z M 358.8307495 331.8723755 L 293.1961059 293.89349369999996 C 249.4136962 363.9789429 152.7204589 329.72979739999994 151.66009520000003 256.0006714 C 155.19085690000003 176.0023804 253.57019040000003 152.56988529999998 293.19171140000003 218.10351559999998 L 358.8262939 180.12310789999998 C 273.2891846 42.5216675 74.9389038 107.9119263 75.8300781 256.0006714 C 79.6317749 415.6530762 283.4476929 462.7354736 358.8307495 331.8723755 z M 374.5 232.5919189 L 363.2472534 232.5919189 L 365.2755127 213 L 352.7755127 213 L 350.69152829999996 232.5919189 L 336.47174069999994 232.5919189 L 338.5 213 L 326 213 L 323.9160156 232.5919189 L 312 232.5919189 L 312 244.6636962 L 322.631958 244.6636962 L 320.7879028 262 L 308.5 262 L 308.5 274.0717773 L 319.5037842 274.0717773 L 317.2244873 295.5 L 329.95916750000004 295.5 L 332.17755130000006 274.0717773 L 346.2792969000001 274.0717773 L 344 295.5 L 356.7346802 295.5 L 358.95306400000004 274.0717773 L 371 274.0717773 L 371 262 L 360.2027588 262 L 361.99749760000003 244.6636963 L 374.5 244.6636963 L 374.5 232.5919189 z" stroke-linecap="round" />
</g>
</svg>